<svg class="svg-icon" style="width: 1em; height: 1em;vertical-align: middle;fill: currentColor;overflow: hidden;" viewBox="0 0 1024 1024" version="1.1" xmlns="http://www.w3.org/2000/svg"><path d="M512 1024c282.752 0 512-229.248 512-512S794.752 0 512 0 0 229.248 0 512s229.248 512 512 512z m0-896c212.032 0 384 171.968 384 384 0 212.096-171.968 384-384 384S128 724.096 128 512c0-212.032 171.968-384 384-384zM256 512c0-141.376 114.624-256 256-256V192C335.232 192 192 335.296 192 512h64z m64 0c0 105.984 85.952 192 192 192s192-86.016 192-192c0-106.048-85.952-192-192-192s-192 85.952-192 192z m192-64a64 64 0 1 1 0 128 64 64 0 1 1 0-128z m0 320v64c176.768 0 320-143.232 320-320h-64c0 141.376-114.624 256-256 256z"  /></svg>